<!-- Generator: Adobe Illustrator 29.4.0, SVG Export Plug-In . SVG Version: 9.03 Build 0)  -->
<svg version="1.1" baseProfile="basic" id="Layer_1" xmlns="http://www.w3.org/2000/svg" xmlns:xlink="http://www.w3.org/1999/xlink" x="0px" y="0px" viewBox="0 0 48 48" xml:space="preserve" width="48px" height="48px">
<linearGradient id="SVGID_1_" gradientUnits="userSpaceOnUse" x1="-60" y1="4" x2="-60" y2="44" gradientTransform="matrix(-1 0 0 1 -53 0)">
	<stop offset="0" style="stop-color:#BD4FF4" />
	<stop offset="0.5869" style="stop-color:#A235EC" />
	<stop offset="0.9999" style="stop-color:#8C20E5" />
</linearGradient>
<path style="fill:url(#SVGID_1_);" d="M4,20V9c0-2.761,2.3-5,5-5c1.783,0,4,1,4,1l-1.006,2.454C9.661,6.299,8,7.879,8,10.495  C8,13.019,8,20,8,20c0,2.5-2,4-2,4s2,1.5,2,4c0,0,0,6.981,0,9.505c0,2.616,1.661,4.196,3.994,3.041L13,43c0,0-2.217,1-4,1  c-2.7,0-5-2.239-5-5V28c0-2.5-3-4-3-4S4,22.5,4,20z" />
<linearGradient id="SVGID_00000005239987107104785940000017796198540620044964_" gradientUnits="userSpaceOnUse" x1="-26" y1="4" x2="-26" y2="44" gradientTransform="matrix(1 0 0 1 67 0)">
	<stop offset="0" style="stop-color:#BD4FF4" />
	<stop offset="0.5869" style="stop-color:#A235EC" />
	<stop offset="0.9999" style="stop-color:#8C20E5" />
</linearGradient>
<path style="fill:url(#SVGID_00000005239987107104785940000017796198540620044964_);" d="M44,20V9c0-2.761-2.3-5-5-5  c-1.783,0-4,1-4,1l1.006,2.454C38.339,6.299,40,7.879,40,10.495C40,13.019,40,20,40,20c0,2.5,2,4,2,4s-2,1.5-2,4  c0,0,0,6.981,0,9.505c0,2.616-1.661,4.196-3.994,3.041L35,43c0,0,2.217,1,4,1c2.7,0,5-2.239,5-5V28c0-2.5,3-4,3-4S44,22.5,44,20z" />
<linearGradient id="SVGID_00000116196609728761476630000015674958442455686286_" gradientUnits="userSpaceOnUse" x1="20" y1="15.0418" x2="20" y2="26.9582">
	<stop offset="0" style="stop-color:#2AA4F4" />
	<stop offset="1" style="stop-color:#007AD9" />
</linearGradient>
<path style="fill:url(#SVGID_00000116196609728761476630000015674958442455686286_);" d="M20.728,15.042l0.375,1.532  c0.401,1.641,1.682,2.922,3.323,3.323l1.532,0.375c0,0.784,0,0.671,0,1.455l-1.532,0.375c-1.641,0.401-2.922,1.682-3.323,3.323  l-0.375,1.532c-0.784,0-0.671,0-1.455,0l-0.375-1.532c-0.401-1.641-1.682-2.922-3.323-3.323l-1.532-0.375c0-0.784,0-0.671,0-1.455  l1.532-0.375c1.641-0.401,2.922-1.682,3.323-3.323l0.375-1.532C20.056,15.042,19.944,15.042,20.728,15.042z" />
<linearGradient id="SVGID_00000046339751905955370220000015936677639676143252_" gradientUnits="userSpaceOnUse" x1="31" y1="23.039" x2="31" y2="30.961">
	<stop offset="0" style="stop-color:#2AA4F4" />
	<stop offset="1" style="stop-color:#007AD9" />
</linearGradient>
<path style="fill:url(#SVGID_00000046339751905955370220000015936677639676143252_);" d="M31.523,23.039l0.394,1.362  c0.235,0.812,0.87,1.447,1.682,1.682l1.362,0.394c0,0.545,0,0.5,0,1.046l-1.362,0.394c-0.812,0.235-1.447,0.87-1.682,1.682  l-0.394,1.362c-0.545,0-0.5,0-1.046,0l-0.394-1.362c-0.235-0.812-0.87-1.447-1.682-1.682l-1.362-0.394c0-0.545,0-0.5,0-1.046  l1.362-0.394c0.812-0.235,1.447-0.87,1.682-1.682l0.394-1.362C31.023,23.039,30.977,23.039,31.523,23.039z" />
</svg>